<svg xmlns="http://www.w3.org/2000/svg" viewBox="1262 546 77.982 97.861">
  <g id="italic-text" transform="translate(1252.06 546)">
    <path id="Path_1" data-name="Path 1" d="M87.494.763A2,2,0,0,0,85.923,0H32.411a2,2,0,0,0-1.944,1.53l-2.2,9.115a2,2,0,0,0,1.944,2.47h18.8L31.81,84.746H14.145A2,2,0,0,0,12.2,86.275L10,95.39a2,2,0,0,0,1.944,2.471H65.452a2,2,0,0,0,1.943-1.53l2.2-9.114a2,2,0,0,0-1.944-2.471H49.133l17.2-71.631H83.717a2,2,0,0,0,1.943-1.529l2.205-9.115A2,2,0,0,0,87.494.763Z"/>
  </g>
</svg>
