<svg xmlns="http://www.w3.org/2000/svg" viewBox="22 154 20 20"><defs><style>.a{fill:#454545;}</style></defs><path class="a" d="M17.5,11a6.241,6.241,0,0,0,.051-1c0-.35-.051-.65-.051-1l2.145-1.65a.46.46,0,0,0,.1-.65L17.7,3.25a.5.5,0,0,0-.613-.2l-2.554,1a7.432,7.432,0,0,0-1.737-1L12.389.4c.051-.2-.153-.4-.409-.4H7.894a.547.547,0,0,0-.511.4L6.975,3.05a8.639,8.639,0,0,0-1.737,1l-2.554-1a.478.478,0,0,0-.613.2L.027,6.7a.523.523,0,0,0,.1.65L2.326,9a6.241,6.241,0,0,0-.051,1c0,.35.051.65.051,1L.181,12.65a.46.46,0,0,0-.1.65l2.043,3.45a.5.5,0,0,0,.613.2l2.554-1a7.432,7.432,0,0,0,1.737,1l.409,2.65a.5.5,0,0,0,.511.4h4.087a.547.547,0,0,0,.511-.4l.409-2.65a8.639,8.639,0,0,0,1.737-1l2.554,1a.478.478,0,0,0,.613-.2L19.9,13.3a.6.6,0,0,0-.1-.65Zm-7.56,2.5a3.5,3.5,0,1,1,0-7,3.5,3.5,0,1,1,0,7Z" transform="translate(22.048 154)"/></svg>