<svg id="Group_1" data-name="Group 1" xmlns="http://www.w3.org/2000/svg" viewBox="1051.98 1452.989 48.774 48.774">
  <defs>
    <style>
      .cls-1 {
        fill: #010002;
      }
    </style>
  </defs>
  <g id="icon" transform="translate(1051.98 1452.989)">
    <path id="Path_11" data-name="Path 11" class="cls-1" d="M24.387,0A24.387,24.387,0,1,0,48.774,24.387,24.387,24.387,0,0,0,24.387,0ZM38.3,38.221a19.693,19.693,0,0,1-27.833,0A19.594,19.594,0,0,1,24.387,4.793,19.583,19.583,0,0,1,38.3,38.221Z"/>
  </g>
  <g id="icon-2" data-name="icon" transform="translate(1067.453 1468.607)">
    <path id="Path_11-2" data-name="Path 11" class="cls-1" d="M8.841,0a8.841,8.841,0,1,0,8.841,8.841A8.841,8.841,0,0,0,8.841,0Zm5.045,13.857a7.14,7.14,0,0,1-10.091,0A7.1,7.1,0,0,1,8.841,1.738a7.1,7.1,0,0,1,5.045,12.119Z"/>
  </g>
</svg>
